<svg width="1440" height="290" viewBox="0 0 1440 290" fill="none" xmlns="http://www.w3.org/2000/svg">
<path d="M0 283.838C242.716 283.898 485.312 282.439 727.968 280.788C832.959 280.069 938.669 280.305 1043.65 281.819C1175.06 283.712 1306.54 281.929 1437.92 283.838" stroke="url(#paint0_linear)" stroke-miterlimit="10"/>
<path d="M0 275.796C68.7725 275.796 137.565 276.087 206.328 275.944C267.78 275.818 329.093 273.081 390.526 272.609C504.964 271.731 619.382 272.752 733.81 271.715C835.376 270.793 937.99 268.352 1039.49 272.077C1098.64 274.271 1157.19 275.27 1216.4 276.175C1290.29 277.305 1364.1 274.238 1437.96 275.796" stroke="url(#paint1_linear)" stroke-miterlimit="10"/>
<path d="M0 267.864C67.7839 267.864 135.748 268.49 203.512 267.815C267.191 267.179 330.501 262.719 394.131 261.573C508.789 259.505 622.547 265.412 737.085 264.359C837.872 263.449 937.231 256.054 1038.13 262.67C1097.1 266.537 1154.25 269.565 1213.66 270.448C1288.55 271.545 1363.08 266.208 1437.96 267.864" stroke="url(#paint2_linear)" stroke-miterlimit="10"/>
<path d="M0 260.086C66.5557 260.086 133.601 261.084 200.106 259.707C266.612 258.331 332.169 251.995 398.475 249.949C458.75 248.089 518.175 248.589 578.13 252.637C631.864 256.268 684.06 258.89 738.233 258.495C785.716 258.144 830.203 254.184 877.097 250.492C930.761 246.263 986.012 248.238 1039.18 253.624C1097.69 259.559 1152.89 265.237 1212.64 265.884C1288.01 266.707 1362.54 258.665 1437.96 260.086" stroke="url(#paint3_linear)" stroke-miterlimit="10"/>
<path d="M0 252.417C65.1177 252.417 131.224 253.761 196.232 251.611C265.693 249.318 333.977 241.013 403.288 237.898C462.799 235.188 522.708 237.045 581.286 243.416C633.582 249.022 684.14 254.03 737.594 253.8C787.094 253.586 831.881 246.702 879.933 241.134C934.475 234.815 988.449 237.212 1042.16 244.875C1099.73 253.103 1152.88 261.968 1213.04 262.203C1288.54 262.505 1362.33 251.496 1437.96 252.423" stroke="url(#paint4_linear)" stroke-miterlimit="10"/>
<path d="M0 244.87C63.5799 244.837 128.718 246.515 192.078 243.58C264.815 240.24 335.874 229.933 408.341 225.627C469.155 222.017 525.355 225.374 584.012 234.442C634.231 242.209 682.872 249.987 735.547 250.004C787.633 250.004 833.968 239.664 883.398 232.116C939.708 223.52 991.634 226.022 1046.66 236.406C1102.66 246.97 1154.07 259.444 1214.57 259.17C1289.96 258.797 1362.36 244.617 1437.96 244.87" stroke="url(#paint5_linear)" stroke-miterlimit="10"/>
<path d="M0 237.442C61.9721 237.393 126.131 239.258 187.734 235.649C263.806 231.194 337.522 218.896 413.324 213.345C474.987 208.831 528.511 213.658 586.219 225.737C633.831 235.703 680.595 246.504 732.412 246.844C787.174 247.206 836.544 233.005 887.192 223.444C945.679 212.402 995.619 214.749 1052.14 228.205C1105.96 241.019 1156.15 257.469 1216.9 256.548C1292.03 255.407 1362.52 237.969 1437.94 237.442" stroke="url(#paint6_linear)" stroke-miterlimit="10"/>
<path d="M0 230.136C60.3844 230.07 123.545 232.056 183.48 227.848C262.807 222.281 339.189 208.052 418.147 201.261C481.058 195.847 531.546 202.045 588.036 217.305C632.713 229.373 677.589 243.312 728.687 244.047C786.126 244.864 839.46 226.417 891.276 215.078C918.418 209.171 947.027 203.636 976.616 204.908C1005.57 206.159 1033 212.857 1058.32 220.268C1109.37 235.171 1159.1 255.687 1219.84 254.118C1294.63 252.182 1362.77 231.496 1437.97 230.152" stroke="url(#paint7_linear)" stroke-miterlimit="10"/>
<path d="M0.0493164 222.955C58.9658 222.873 121.098 224.908 179.395 220.213C261.748 213.597 340.517 197.531 422.401 189.566C486.749 183.301 534.322 190.756 589.284 209.16C630.955 223.114 673.954 240.169 724.592 241.326C784.507 242.692 842.425 219.906 895.23 207.009C922.891 200.251 953.398 193.126 984.294 194.695C1013.25 196.165 1040.38 204.195 1064.6 212.522C1112.88 229.132 1162.1 253.789 1223 251.589C1297.47 248.89 1362.98 225.062 1437.98 222.955" stroke="url(#paint8_linear)" stroke-miterlimit="10"/>
<path d="M0.0599365 215.901C57.5684 215.802 118.782 217.838 175.591 212.796C260.631 205.243 341.516 187.481 425.936 178.452C458.081 175.019 488.547 173.033 520.033 179.056C545.686 183.965 568.254 192.583 590.024 201.294C628.968 216.867 670.08 236.839 720.598 238.402C782.71 240.328 845.282 213.411 898.946 199.198C927.086 191.744 959.47 183.11 991.544 184.936C1020.63 186.582 1047.41 195.836 1070.58 204.974C1116.3 222.988 1164.93 251.501 1226.15 248.742C1300.36 245.391 1363.15 218.611 1438.02 215.874" stroke="url(#paint9_linear)" stroke-miterlimit="10"/>
<path d="M0.0698242 208.962C56.37 208.858 116.754 210.882 172.256 205.611C259.452 197.328 341.875 178.041 428.423 168.162C460.677 164.481 491.054 162.199 522.379 169.034C547.793 174.613 569.453 184.185 590.163 193.751C626.821 210.663 666.215 233.142 716.984 235.034C749.428 236.246 782.051 226.949 810.072 219.077C841.157 210.344 871.045 200.394 902.121 191.65C930.681 183.62 964.632 173.768 997.785 175.825C1027.08 177.641 1053.44 187.838 1075.78 197.657C1119.4 216.856 1167.12 248.594 1228.93 245.38C1303 241.54 1363.17 212.094 1438.03 208.94" stroke="url(#paint10_linear)" stroke-miterlimit="10"/>
<path d="M0.079895 202.149C55.3715 202.045 115.117 204.075 169.55 198.704C258.284 189.955 341.666 169.352 429.661 158.859C461.765 155.019 492.372 152.567 523.378 159.89C548.762 165.885 569.772 176.28 589.734 186.505C624.864 204.492 662.77 228.836 714.158 230.937C747.49 232.286 781.063 222.215 809.522 213.888C841.647 204.481 872.433 193.773 904.558 184.355C933.517 175.858 968.467 165.233 1002.51 167.399C1032.12 169.286 1058.02 180.12 1079.76 190.504C1122.03 210.685 1168.28 244.699 1231.08 241.271C1305.16 237.228 1363.03 205.419 1438.04 202.171" stroke="url(#paint11_linear)" stroke-miterlimit="10"/>
<path d="M0.0997925 195.457C54.6125 195.369 113.988 197.437 167.622 192.111C257.105 183.225 340.717 161.541 429.391 150.762C461.056 146.922 492.232 144.421 522.799 151.793C548.392 157.964 569.113 168.919 588.705 179.577C623.276 198.414 660.064 223.734 712.53 225.775C746.601 227.102 780.264 216.927 809.123 208.222C841.926 198.348 873.282 187.092 906.075 177.207C935.404 168.365 970.504 157.57 1005.24 159.72C1035.2 161.574 1060.67 172.605 1082.14 183.433C1124.08 204.579 1168.12 239.455 1232.39 236.06C1306.66 232.138 1362.78 198.37 1438.1 195.468" stroke="url(#paint12_linear)" stroke-miterlimit="10"/>
<path d="M0.109802 188.875C54.4228 188.688 113.609 191.014 167.013 185.583C255.887 176.527 338.43 154.196 426.406 143.165C457.981 139.21 489.137 136.84 519.683 144.125C545.646 150.329 566.776 161.415 586.658 172.205C621.868 191.316 659.046 216.96 712.2 219.351C746.512 220.893 779.974 210.844 808.963 202.001C841.817 191.974 873.112 180.498 905.956 170.466C935.424 161.459 970.344 150.811 1005.34 153.115C1035.5 155.101 1060.82 166.154 1082.33 177.103C1124.44 198.545 1167.64 232.961 1232.42 229.763C1306.9 226.098 1362.44 191.409 1438.07 188.875" stroke="url(#paint13_linear)" stroke-miterlimit="10"/>
<path d="M0.119751 182.44C54.6624 182.1 113.669 185.035 167.263 179.226C254.559 169.764 335.245 147.065 421.612 135.644C453.567 131.415 483.904 129.216 514.89 136.549C541.323 142.797 563.202 153.768 583.812 164.465C620.191 183.367 658.936 209.269 712.09 212.533C746.192 214.629 779.774 204.552 808.514 195.715C840.968 185.737 871.794 174.251 904.238 164.262C933.646 155.205 968.567 144.64 1003.52 147.378C1033.58 149.731 1059.27 160.943 1081.08 171.771C1123.41 192.78 1167.86 226.548 1231.86 223.444C1306.52 219.818 1362.24 184.931 1438.05 182.44" stroke="url(#paint14_linear)" stroke-miterlimit="10"/>
<path d="M0.139893 176.116C54.9921 175.71 113.839 179.462 167.762 173.313C253.281 163.56 331.86 140.565 416.41 128.881C448.634 124.416 478.262 122.425 509.598 129.665C536.44 135.869 559.197 146.555 580.577 157.169C618.174 175.819 658.706 201.628 711.811 205.682C745.603 208.266 778.926 198.397 807.405 189.599C839.31 179.725 869.487 168.31 901.372 158.442C930.691 149.369 965.282 139.106 1000.07 142.232C1030.17 144.942 1056.31 156.204 1078.61 166.917C1121.5 187.487 1167.42 220.41 1230.93 217.349C1305.91 213.74 1361.94 178.628 1438.08 176.149" stroke="url(#paint15_linear)" stroke-miterlimit="10"/>
<path d="M0.15979 169.912C55.3915 169.522 114.208 174.267 168.511 167.805C252.073 157.871 328.365 134.641 410.928 122.754C443.282 118.097 472.35 116.347 503.946 123.379C531.267 129.457 554.874 139.835 577.082 150.258C616.247 168.573 658.197 194.009 711.452 198.809C744.844 201.815 777.578 192.374 805.778 183.636C836.984 173.96 866.392 162.644 897.578 152.956C926.786 143.878 960.708 134.125 995.289 137.597C1025.53 140.642 1052.21 151.859 1075.18 162.424C1118.92 182.539 1166.48 214.453 1229.65 211.409C1305.09 207.772 1361.55 172.424 1438.15 169.928" stroke="url(#paint16_linear)" stroke-miterlimit="10"/>
<path d="M0.169678 163.828C55.8507 163.521 114.647 169.407 169.44 162.665C250.904 152.644 324.77 129.205 405.205 117.252C437.54 112.436 466.209 110.938 497.964 117.663C525.775 123.555 550.21 133.571 573.327 143.675C614.269 161.574 657.498 186.401 710.952 191.892C775.461 198.523 840.648 164.009 892.924 147.74C922.023 138.678 955.026 129.6 989.307 133.401C1019.78 136.785 1047.03 147.893 1070.78 158.299C1115.64 177.942 1164.97 208.715 1227.98 205.654C1303.98 201.968 1360.98 166.363 1438.13 163.828" stroke="url(#paint17_linear)" stroke-miterlimit="10"/>
<path d="M0.189758 157.871C56.3601 157.701 115.167 164.849 170.528 157.871C249.806 147.844 321.125 124.295 399.324 112.304C431.548 107.367 459.938 106.138 491.783 112.474C520.103 118.119 545.387 127.691 569.413 137.477C612.132 154.865 656.649 178.864 710.373 185.035C773.903 192.319 836.284 158.804 887.592 142.797C915.962 133.96 949.035 125.052 982.377 129.605C1013.33 133.829 1040.6 144.07 1065.71 154.492C1111.85 173.636 1163.08 203.164 1226.09 200.07C1302.74 196.313 1360.35 160.438 1438.15 157.833" stroke="url(#paint18_linear)" stroke-miterlimit="10"/>
<path d="M0.209656 152.029C56.9093 152.029 115.776 160.548 171.756 153.313C248.777 143.357 317.48 119.709 393.372 107.784C525.185 87.0548 593.948 163.582 709.734 178.228C772.145 186.132 831.371 153.823 881.75 138.14C909.99 129.364 941.785 121.371 974.708 126.182C1006.05 130.762 1033.96 140.779 1060.08 151.004C1107.66 169.654 1160.87 197.838 1224.01 194.695C1301.38 190.855 1359.66 154.701 1438.18 152.029" stroke="url(#paint19_linear)" stroke-miterlimit="10"/>
<path d="M0.229675 146.313C57.4785 146.544 116.445 156.461 173.095 149.012C247.819 139.188 313.895 115.486 387.421 103.665C516.508 82.9188 595.126 155.776 709.045 171.469C770.378 179.928 826.049 149.051 875.509 133.67C903.629 124.926 934.036 117.987 966.49 123.017C998.255 127.954 1026.87 137.718 1054.04 147.729C1103.15 165.831 1158.39 192.66 1221.8 189.445C1299.92 185.49 1358.93 149.073 1438.21 146.313" stroke="url(#paint20_linear)" stroke-miterlimit="10"/>
<path d="M0.249634 140.718C58.0677 141.185 117.154 152.55 174.513 144.915C246.95 135.271 310.32 111.542 381.569 99.8797C507.92 79.1943 596.265 148.069 708.336 164.81C768.57 173.806 820.457 144.448 869.048 129.369C897.068 120.675 925.967 114.849 957.922 120.044C990.126 125.304 1019.48 134.855 1047.72 144.619C1098.41 162.172 1155.69 187.602 1219.42 184.316C1298.31 180.241 1358.1 143.549 1438.17 140.696" stroke="url(#paint21_linear)" stroke-miterlimit="10"/>
<path d="M0.269531 135.244C58.6468 135.952 117.903 148.771 176.02 140.976C246.221 131.552 306.975 107.812 375.927 96.3471C499.592 75.7823 597.383 140.521 707.617 158.266C766.763 167.789 814.755 139.994 862.517 125.206C890.418 116.566 917.909 111.887 949.334 117.268C981.988 122.863 1012.12 132.172 1041.41 141.695C1093.69 158.7 1152.99 182.726 1217.11 179.357C1296.83 175.167 1357.37 138.217 1438.23 135.244" stroke="url(#paint22_linear)" stroke-miterlimit="10"/>
<path d="M0.289551 129.896C59.206 130.839 118.662 145.079 177.448 137.153C245.492 127.976 303.679 104.241 370.435 93.001C491.653 72.5953 598.512 133.121 706.958 151.859C765.025 161.897 809.113 135.666 856.096 121.141C883.877 112.556 910.02 109.024 940.846 114.559C973.949 120.494 1004.84 129.589 1035.18 138.848C1089 155.271 1150.27 177.942 1214.84 174.503C1295.35 170.197 1356.64 132.946 1438.29 129.907" stroke="url(#paint23_linear)" stroke-miterlimit="10"/>
<path d="M0.30957 124.663C59.8152 125.831 119.411 141.437 178.916 133.401C244.913 124.487 300.644 100.768 365.322 89.7701C484.214 69.5509 599.62 125.875 706.249 145.606C763.348 156.171 803.491 131.393 849.825 117.159C877.516 108.656 902.291 106.188 932.598 111.882C966.13 118.157 997.766 127.071 1029.1 136.061C1084.39 151.92 1147.55 173.258 1212.57 169.731C1293.85 165.315 1355.85 127.795 1438.25 124.663" stroke="url(#paint24_linear)" stroke-miterlimit="10"/>
<path d="M0.32959 119.556C60.3944 120.916 120.16 137.806 180.334 129.687C244.444 121.042 297.868 97.3235 360.609 86.5831C421.473 76.1608 486.221 87.927 543.07 100.499C597.892 112.628 650.009 128.535 705.65 139.534C762.03 150.68 797.989 127.071 843.974 113.204C905.037 94.8002 967.578 118.141 1023.47 133.275C1080.1 148.59 1145.04 168.655 1210.48 165.052C1292.48 160.543 1355.16 122.759 1438.29 119.55" stroke="url(#paint25_linear)" stroke-miterlimit="10"/>
<path d="M0.349426 114.564C60.9735 116.083 120.749 134.141 181.692 125.963C244.094 117.581 295.391 93.8786 356.445 83.3741C416.749 72.9848 483.205 84.2682 540.324 95.7821C596.255 107.06 649.489 121.953 705.12 133.67C760.751 145.386 793.245 122.935 838.641 109.265C898.316 91.3005 963.464 116.396 1018.39 130.466C1076.2 145.277 1142.79 164.125 1208.6 160.471C1291.23 155.88 1354.53 117.844 1438.27 114.564" stroke="url(#paint26_linear)" stroke-miterlimit="10"/>
<path d="M0.369507 109.699C61.5628 111.344 121.288 130.411 182.941 122.183C243.854 114.059 293.264 90.368 352.7 80.0664C412.545 69.7265 480.519 80.5491 537.897 91.1085C594.817 101.591 649.12 115.59 704.661 128.025C730.864 133.889 750.067 134.13 775.401 126.566C795.992 120.417 813.407 111.487 833.968 105.294C861.399 97.0218 883.248 97.2522 911.977 103.401C946.498 110.801 980.131 119.309 1014 127.575C1072.79 141.881 1140.82 159.632 1206.93 155.946C1290.13 151.305 1353.96 113.017 1438.3 109.699" stroke="url(#paint27_linear)" stroke-miterlimit="10"/>
<path d="M0.389404 104.948C62.1518 106.594 121.697 126.572 184.069 118.316C243.774 110.412 291.497 86.6324 349.734 76.5942C409.27 66.331 478.492 76.7039 536.1 86.4679C593.708 96.2319 649.02 109.507 704.381 122.671C729.965 128.755 748.669 129.616 773.783 122.09C793.695 116.122 810.311 107.312 830.173 101.3C857.454 93.0394 878.964 93.917 907.194 100.269C941.885 108.075 976.036 116.566 1010.55 124.602C1070.07 138.458 1139.43 155.222 1205.64 151.525C1289.3 146.857 1353.56 108.338 1438.31 104.998" stroke="url(#paint28_linear)" stroke-miterlimit="10"/>
<path d="M0.409363 100.329C62.751 101.931 121.957 122.6 185.028 114.323C243.844 106.594 290.079 82.6336 347.507 72.8915C406.963 62.7929 476.934 72.6941 534.902 81.7614C593.339 90.8946 649.13 103.615 704.262 117.504C729.326 123.812 747.82 125.14 772.745 117.614C792.117 111.772 808.064 103.017 827.377 97.1205C854.529 88.8321 876.018 90.176 903.819 96.7694C938.559 104.998 973.11 113.511 1008.15 121.377C1068.07 134.833 1138.59 150.729 1204.74 147.06C1288.73 142.397 1353.3 103.659 1438.41 100.329" stroke="url(#paint29_linear)" stroke-miterlimit="10"/>
<path d="M0.429382 95.8259C63.3402 97.2796 122.037 118.448 185.807 110.148C244.014 102.573 289.25 78.5086 345.99 68.8817C405.256 58.8325 476.145 68.5197 534.263 77.022C593.299 85.6615 649.34 98.0366 704.212 112.677C728.867 119.26 747.46 120.85 772.255 113.275C791.228 107.477 806.676 98.7168 825.62 92.8638C852.671 84.5041 874.46 86.0839 901.931 92.979C936.602 101.679 971.413 110.253 1006.84 117.987C1066.94 131.103 1138.28 146.286 1204.16 142.671C1288.35 138.058 1353.08 99.1117 1438.39 95.8259" stroke="url(#paint30_linear)" stroke-miterlimit="10"/>
<path d="M0.459473 91.4376C63.6898 92.7432 121.977 114.142 186.136 105.765C244.144 98.1957 289.11 74.1532 345.67 64.5812C404.876 54.5649 476.085 64.4495 534.223 72.7709C593.469 81.2513 649.33 93.5331 704.272 108.239C728.837 114.822 747.69 116.193 772.315 108.667C791.159 102.908 806.507 94.2242 825.35 88.4481C852.312 80.1871 874.5 81.723 901.712 88.8156C936.233 97.8117 971.084 106.451 1006.66 114.109C1066.47 126.983 1138.74 141.996 1204.11 138.244C1288.18 133.428 1353.33 95.1403 1438.42 91.4541" stroke="url(#paint31_linear)" stroke-miterlimit="10"/>
<path d="M0.479248 87.1206C63.8494 88.3603 121.967 109.901 186.276 101.427C244.194 93.7909 289.39 69.9514 345.989 60.4397C405.196 50.4892 476.245 60.8072 534.293 69.1834C593.349 77.7077 648.97 89.9675 704.292 103.977C756.657 117.235 782.611 96.8462 825.739 84.1311C852.701 76.1828 875.03 77.6309 901.991 84.7509C936.363 93.8293 971.153 102.447 1006.72 110.017C1066.18 122.666 1139.38 137.751 1204.29 133.681C1288 128.426 1353.95 91.6954 1438.47 87.2029" stroke="url(#paint32_linear)" stroke-miterlimit="10"/>
<path d="M0.499329 82.8695C64.0592 84.0653 122.037 105.765 186.546 97.2193C244.463 89.5397 289.839 65.9525 346.469 56.5286C405.675 46.6549 476.515 57.3679 534.472 65.7715C593.299 74.3013 648.71 86.5063 704.352 99.8084C756.278 112.227 783.16 92.2001 826.319 80.0609C853.28 72.4582 875.808 73.8625 902.531 80.9935C936.742 90.1212 971.433 98.6729 1006.99 106.111C1066.21 118.503 1140.14 133.428 1204.51 129.084C1287.8 123.467 1354.56 88.3329 1438.46 83.1273" stroke="url(#paint33_linear)" stroke-miterlimit="10"/>
<path d="M0.519287 78.6951C64.2989 79.858 122.187 101.734 186.935 93.1491C244.783 85.4805 290.428 62.1621 347.098 52.8369C406.304 43.1278 476.914 54.1096 534.762 62.5187C593.309 71.021 648.601 83.1328 704.441 95.6998C755.998 107.29 783.799 87.7076 827.068 76.1334C854.099 68.9091 876.797 70.3134 903.319 77.4389C937.341 86.5831 971.962 95.0361 1007.46 102.299C1066.53 114.394 1140.91 128.952 1204.84 124.383C1287.72 118.464 1355.25 84.9813 1438.51 79.1339" stroke="url(#paint34_linear)" stroke-miterlimit="10"/>
<path d="M0.539185 74.592C64.5884 75.7439 122.366 97.7897 187.444 89.1996C245.242 81.5749 291.167 58.5198 347.887 49.3811C407.073 39.8421 477.323 51.0706 535.151 59.4523C593.379 67.8998 648.501 79.8854 704.571 91.6955C755.739 102.474 784.518 83.407 827.986 72.4582C855.108 65.6234 877.985 67.077 904.338 74.1806C938.094 83.3712 972.732 91.5491 1008.1 98.6784C1067.12 110.439 1141.71 124.46 1205.27 119.682C1287.61 113.522 1355.97 81.7285 1438.5 75.327" stroke="url(#paint35_linear)" stroke-miterlimit="10"/>
<path d="M0.569275 70.5657C64.9081 71.7177 122.666 93.9555 188.063 85.3763C245.812 77.8119 292.046 55.064 348.836 46.1119C408.002 36.7867 477.953 48.1908 535.671 56.5341C593.589 64.8938 648.561 76.7149 704.761 87.757C755.549 97.7404 785.367 79.2381 829.095 68.953C856.346 62.5406 879.393 64.0765 905.596 71.1472C939.149 80.2769 973.661 88.3016 1008.95 95.1787C1068 106.572 1142.58 119.83 1205.8 114.926C1287.61 108.579 1356.75 78.525 1438.56 71.6244" stroke="url(#paint36_linear)" stroke-miterlimit="10"/>
<path d="M0.589172 66.6272C65.2575 67.7846 123.006 90.2144 188.772 81.7011C246.481 74.23 293.045 51.8112 349.854 43.073C408.99 33.9782 478.572 45.5194 536.24 53.7914C593.728 62.0195 648.68 73.654 704.941 83.9117C755.369 93.1107 786.285 75.2393 830.313 65.6508C857.714 59.6827 880.941 61.3338 907.034 68.3935C940.357 77.436 974.714 85.2801 1009.89 91.8765C1069.03 102.847 1143.39 115.222 1206.34 110.203C1287.58 103.73 1357.47 75.4477 1438.54 68.1247" stroke="url(#paint37_linear)" stroke-miterlimit="10"/>
<path d="M0.609131 62.7655C65.6369 63.9504 123.435 86.5941 189.581 78.1246C247.249 70.7852 294.153 48.7229 351.022 40.2206C410.119 31.3891 479.321 43.0126 536.859 51.1913C593.948 59.3097 648.84 70.6809 705.12 80.1487C755.199 88.5688 787.274 71.3721 831.631 62.5187C859.202 57.0333 882.609 58.8105 908.622 65.8099C941.724 74.7451 975.938 82.3798 1011.01 88.6566C1070.34 99.205 1144.28 110.532 1207 105.425C1287.65 98.8429 1358.25 72.3979 1438.57 64.6964" stroke="url(#paint38_linear)" stroke-miterlimit="10"/>
<path d="M0.629028 58.9916C66.0463 60.2093 123.834 83.0724 190.47 74.7182C248.098 67.4884 295.371 45.7992 352.3 37.5601C411.347 29.0194 480.119 40.6813 537.578 48.7558C594.267 56.7261 649.11 67.8121 705.34 76.479C755.08 84.1585 788.382 67.664 833.089 59.573C860.85 54.5539 884.436 56.5231 910.389 63.4128C943.26 72.2125 977.312 79.6139 1012.24 85.5518C1071.81 95.6175 1145.15 105.776 1207.69 100.609C1287.74 94.0267 1359.01 69.3973 1438.57 61.3777" stroke="url(#paint39_linear)" stroke-miterlimit="10"/>
<path d="M0.64917 55.3109C66.4759 56.5725 124.324 79.655 191.379 71.416C249.037 64.3563 296.68 43.04 353.679 35.0862C412.665 26.8581 480.958 38.5146 538.417 46.4684C594.687 54.2686 649.489 65.0365 705.66 72.897C755.06 79.8141 789.661 64.0875 834.737 56.7974C862.697 52.2774 886.453 54.4387 912.387 61.2954C945.019 69.9407 978.9 77.0834 1013.68 82.65C1073.48 92.2001 1146.08 101.108 1208.48 95.8808C1287.9 89.2599 1359.81 66.5504 1438.61 58.2565" stroke="url(#paint40_linear)" stroke-miterlimit="10"/>
<path d="M0.669067 51.7399C66.9052 53.0399 124.823 76.3418 192.467 68.2399C250.036 61.3393 298.077 40.44 355.137 32.7878C414.053 24.8834 481.877 36.5124 539.206 44.3072C595.066 51.9209 649.829 62.3322 705.879 69.3919C754.97 75.5794 790.939 60.6152 836.364 54.1644C864.524 50.1546 888.471 52.5188 914.414 59.3262C946.799 67.7985 980.499 74.6625 1015.11 79.836C1075.3 88.8321 1146.99 96.3471 1209.3 91.1305C1288.1 84.548 1360.58 63.7474 1438.63 55.2176" stroke="url(#paint41_linear)" stroke-miterlimit="10"/>
<path d="M0.689026 48.2292C67.4044 49.6061 125.432 73.1329 193.556 65.1846C251.114 58.4759 299.575 37.9935 356.674 30.6595C415.541 23.1061 482.855 34.6693 540.104 42.3324C595.546 49.7542 650.268 59.7705 706.169 66.0293C754.97 71.5147 792.357 57.3569 838.122 51.7673C866.492 48.2841 890.617 50.9006 916.601 57.6147C948.74 65.8971 982.253 72.464 1016.68 77.225C1077.23 85.6286 1147.93 91.7009 1210.15 86.4789C1288.34 79.9238 1361.34 61.1089 1438.65 52.3817" stroke="url(#paint42_linear)" stroke-miterlimit="10"/>
<path d="M0.708984 44.8338C67.9037 46.2819 126.031 70.0336 194.724 62.2608C252.232 55.7497 301.083 35.7006 358.282 28.7012C417.069 21.5044 483.864 32.9853 541.023 40.4784C596.065 47.6917 650.718 57.2856 706.439 62.7436C754.99 67.4994 793.825 54.1973 839.939 49.4415C868.509 46.4958 892.804 49.3702 918.877 56.024C950.766 64.1004 984.085 70.3501 1018.31 74.6743C1079.22 82.4416 1148.84 87.0054 1211.03 81.8053C1288.61 75.327 1362.07 58.4979 1438.67 49.5951" stroke="url(#paint43_linear)" stroke-miterlimit="10"/>
<path d="M0.728943 41.5425C68.393 43.0675 126.67 67.0441 195.892 59.4578C253.411 53.1551 302.671 33.5503 359.94 26.8965C418.646 20.0782 484.913 31.4439 542.032 38.7614C596.684 45.7663 651.257 54.8995 706.798 59.562C755.139 63.6157 795.452 51.1804 841.897 47.3022C870.676 44.8941 895.141 48.0427 921.314 54.5978C952.955 62.4653 986.078 68.3924 1020.08 72.2717C1081.41 79.3643 1149.84 82.3703 1212.01 77.2085C1288.9 70.8126 1362.8 56.013 1438.69 46.9621" stroke="url(#paint44_linear)" stroke-miterlimit="10"/>
<path d="M0.748901 38.3555C68.9023 39.9627 127.329 64.1369 197.121 56.7809C254.639 50.6977 304.309 31.5372 361.647 25.2454C420.274 18.8275 486.001 30.0506 543.05 37.1816C597.333 43.9671 651.806 52.6121 707.107 56.4847C755.279 59.8583 797.06 48.306 843.804 45.3055C872.763 43.446 897.418 46.8798 923.69 53.3526C955.085 60.9963 988.009 66.5841 1021.78 70.0007C1083.49 76.3803 1150.72 77.801 1212.89 72.6776C1289.22 66.3914 1363.41 53.6378 1438.64 44.4553" stroke="url(#paint45_linear)" stroke-miterlimit="10"/>
<path d="M0.768921 35.2837C69.4216 36.9732 128.019 61.3942 198.369 54.2302C255.877 48.3664 305.986 29.6667 363.395 23.7644C421.922 17.7304 487.099 28.8274 544.139 35.7609C598.062 42.3434 652.415 50.4563 707.487 53.5446C755.569 56.2434 798.778 45.5907 845.881 43.4734C875.05 42.1624 899.804 45.8979 926.327 52.2829C957.48 59.6989 990.202 64.9399 1023.73 67.8834C1164.53 80.6589 1302.5 59.1068 1438.78 42.102" stroke="url(#paint46_linear)" stroke-miterlimit="10"/>
<path d="M0.788818 32.3106C69.9508 34.0934 128.717 58.7283 199.647 51.7892C257.155 46.1612 307.694 27.9278 365.172 22.3711C423.599 16.7211 488.228 27.6809 545.147 34.4115C598.761 40.7691 652.954 48.3554 707.777 50.6428C755.848 52.6669 800.415 42.9632 847.868 41.7016C877.206 40.9336 902.171 44.9928 928.843 51.2846C959.64 58.5966 992.343 63.2592 1025.55 65.8373C1162.76 76.4954 1305.88 56.7096 1438.75 39.8201" stroke="url(#paint47_linear)" stroke-miterlimit="10"/>
<path d="M0.808838 29.4582C70.4801 31.3342 129.427 56.183 200.935 49.4744C258.454 44.0603 309.411 26.3151 366.96 21.1314C425.287 15.8819 489.356 26.6936 546.216 33.1992C599.54 39.3155 653.544 46.3642 708.116 47.9056C756.278 49.266 802.103 40.4784 849.915 40.1108C879.423 39.8859 904.548 44.2633 931.43 50.4782C962.026 57.5489 994.51 61.811 1027.43 63.9284C1090.15 67.9602 1153.75 64.5263 1215.96 59.5949C1290.59 53.6762 1365.33 47.1815 1438.77 37.6534" stroke="url(#paint48_linear)" stroke-miterlimit="10"/>
<path d="M0.828857 26.721C70.4102 28.6573 129.277 53.55 200.716 47.4174C258.004 42.4805 309.062 25.4264 366.161 20.2537C423.879 15.0261 486.66 25.399 543.02 31.6633C597.503 37.6973 652.695 44.4388 708.466 45.2836C757.976 46.0351 806.217 37.7302 855.617 38.7011C885.435 39.288 910.29 44.6418 937.621 50.5879C966.011 56.7645 995.988 60.3026 1026.31 61.9756C1090.83 65.5356 1154.83 60.2861 1218.59 55.3328C1292.19 49.617 1366.44 45.2177 1438.82 35.6622" stroke="url(#paint49_linear)" stroke-miterlimit="10"/>
<path d="M0.838806 24.1045C70.8995 26.1341 130.006 51.2352 201.974 45.3384C259.272 40.6429 310.74 24.0386 367.928 19.2444C425.527 14.4392 487.808 24.664 544.089 30.7253C598.312 36.5728 653.294 42.7932 708.775 42.7932C758.575 42.7932 807.885 35.5909 857.694 37.4285C887.552 38.5256 912.616 44.1865 940.157 50.0065C968.357 55.9636 998.135 59.1287 1028.19 60.3794C1092.93 63.0727 1155.82 56.1446 1219.57 51.3285C1292.69 45.8047 1366.93 43.4514 1438.8 33.7752" stroke="url(#paint50_linear)" stroke-miterlimit="10"/>
<path d="M0.858765 21.6141C71.4487 23.7369 130.675 49.0411 203.252 43.3746C260.571 38.8986 312.437 22.7605 369.706 18.3393C427.184 13.8907 488.977 24.0441 545.227 29.908C599.151 35.5415 653.923 41.2024 709.115 40.4016C759.274 39.672 809.552 33.5503 859.781 36.2436C889.679 37.8509 914.943 43.8135 942.664 49.5073C970.624 55.2505 1000.26 58.0426 1030.04 58.8709C1094.95 60.6865 1156.8 52.1129 1220.53 47.4283C1293.19 42.0856 1367.32 41.7894 1438.77 31.9925" stroke="url(#paint51_linear)" stroke-miterlimit="10"/>
<path d="M0.878784 19.2499C71.958 21.4441 131.434 46.9621 204.52 41.5316C261.849 37.2694 314.115 21.5702 371.473 17.5439C428.832 13.5177 490.125 23.534 546.226 29.1949C600.019 34.6255 654.532 39.7543 709.424 38.1471C760.023 36.666 811.16 31.6414 861.808 35.1795C891.766 37.2694 917.21 43.5557 945.19 49.1179C973.17 54.68 1002.43 57.0717 1031.93 57.4886C1096.84 58.4156 1157.87 48.2347 1221.53 43.6818C1293.77 38.5146 1367.84 40.2699 1438.81 30.3304" stroke="url(#paint52_linear)" stroke-miterlimit="10"/>
<path d="M0.888672 17.0119C72.4572 19.3157 132.143 44.9874 205.748 39.8091C263.107 35.7554 315.752 20.5335 373.191 16.8473C430.39 13.1776 491.303 23.1281 547.304 28.597C600.938 33.8301 655.151 38.4213 709.774 36.0242C760.871 33.7807 812.768 29.8477 863.865 34.214C893.733 36.7702 919.476 43.3856 947.657 48.8216C975.317 54.1534 1004.58 56.205 1033.75 56.2214C1098.66 56.2653 1158.92 44.5266 1222.49 40.0944C1294.38 35.0807 1368.28 38.8821 1438.81 28.7835" stroke="url(#paint53_linear)" stroke-miterlimit="10"/>
<path d="M0.898743 14.911C72.9466 17.2916 132.812 43.1772 206.947 38.1964C264.335 34.3567 317.36 19.5461 374.869 16.2549C432.008 12.9636 492.312 22.8373 548.323 28.1143C601.847 33.1389 655.79 37.2146 710.093 34.0385C761.74 31.0215 814.306 28.1801 865.872 33.3583C895.73 36.3479 921.693 43.2979 950.083 48.6077C977.614 53.753 1006.62 55.437 1035.53 55.064C1100.34 54.2357 1159.97 40.994 1223.45 36.666C1294.93 31.795 1368.64 37.6424 1438.84 27.3408" stroke="url(#paint54_linear)" stroke-miterlimit="10"/>
<path d="M0.918701 12.9417C73.4159 15.4046 133.491 41.4657 208.115 36.7044C265.534 33.0347 318.958 18.7014 376.496 15.7228C433.515 12.7716 493.331 22.6289 549.311 27.7084C602.736 32.541 656.409 36.1065 710.403 32.168C762.629 28.3611 815.843 26.5948 867.77 32.5684C897.598 35.9968 923.78 43.2759 952.42 48.4761C979.781 53.4129 1008.64 54.7733 1037.3 54.0218C1101.94 52.3378 1161.05 37.6589 1224.42 33.4241C1295.57 28.6683 1369.06 36.5453 1438.92 26.0408" stroke="url(#paint55_linear)" stroke-miterlimit="10"/>
<path d="M0.928711 11.1096C73.8254 13.6493 134.12 39.8969 209.223 35.3276C266.672 31.8279 320.396 17.9279 378.064 15.2785C434.983 12.6674 494.359 22.5082 550.25 27.4122C603.604 32.1022 657.009 35.1301 710.683 30.4456C763.518 25.8379 817.211 25.1248 869.587 31.8718C899.355 35.7116 925.788 43.3198 954.617 48.3993C981.838 53.1935 1010.54 54.1864 1038.9 53.0783C1103.31 50.5605 1162.01 34.5267 1225.26 30.3468C1296.16 25.6788 1369.35 35.5744 1438.9 24.8176" stroke="url(#paint56_linear)" stroke-miterlimit="10"/>
<path d="M0.938599 9.42556C74.2946 12.0256 134.749 38.4488 210.272 34.0604C267.77 30.7253 321.824 17.2368 379.552 14.9109C436.381 12.6235 495.298 22.4643 551.139 27.2147C604.443 31.7511 657.588 34.2744 710.962 28.8603C764.336 23.4462 818.56 23.7644 871.345 31.2574C901.043 35.4757 927.735 43.3253 956.724 48.3828C983.685 53.0948 1012.42 53.6872 1040.44 52.2226C1104.58 48.9313 1162.96 31.603 1226.08 27.478C1296.67 22.8648 1369.65 34.7626 1438.9 23.715" stroke="url(#paint57_linear)" stroke-miterlimit="10"/>
<path d="M0.998657 7.85673C74.7541 10.5117 135.338 37.1103 211.311 32.8921C268.789 29.716 323.162 16.6334 380.96 14.6092C437.66 12.6235 496.197 22.4972 551.978 27.1105C605.252 31.4988 658.147 33.5448 711.212 27.4176C765.275 21.1807 819.818 22.4808 872.982 30.7089C902.62 35.2837 929.542 43.4295 958.701 48.4157C985.553 53.007 1014.14 53.2703 1041.86 51.5095C1072.11 49.5841 1101.6 45.1738 1130.64 40.2809C1161.97 35.0094 1194.22 26.9678 1226.86 24.8395C1297.21 20.2482 1369.94 34.1208 1438.91 22.7441" stroke="url(#paint58_linear)" stroke-miterlimit="10"/>
<path d="M0.998657 6.48539C75.1136 9.18421 135.808 35.9529 212.219 31.8773C269.748 28.8055 324.41 16.0848 382.278 14.3624C438.888 12.6565 497.006 22.5905 552.737 27.0885C606.011 31.3781 658.696 32.9414 711.452 26.1231C766.104 19.0579 821.006 21.3014 874.56 30.2426C904.068 35.1795 931.22 43.5721 960.528 48.487C987.271 52.9686 1015.73 52.9357 1043.18 50.8732C1073.37 48.6132 1102.69 43.819 1131.56 38.6133C1162.66 33.0073 1194.96 24.5488 1227.59 22.404C1297.72 17.8018 1370.22 33.6216 1438.92 21.8555" stroke="url(#paint59_linear)" stroke-miterlimit="10"/>
<path d="M0.998657 5.24021C75.4531 7.98291 136.307 34.9107 213.048 30.9557C270.616 27.9826 325.539 15.646 383.456 14.1704C439.986 12.7278 497.714 22.777 553.406 27.1598C606.69 31.3452 659.186 32.4697 711.631 24.9657C766.913 17.0832 822.065 20.2098 875.998 29.8367C905.397 35.0807 932.748 43.7312 962.206 48.5913C988.838 52.9796 1017.13 52.6724 1044.38 50.3411C1074.5 47.763 1103.67 42.6067 1132.38 37.1158C1163.28 31.208 1195.62 22.3766 1228.25 20.1989C1298.15 15.5363 1370.48 33.2815 1438.95 21.093" stroke="url(#paint60_linear)" stroke-miterlimit="10"/>
<path d="M0.998657 4.14861C75.7627 6.8913 136.716 34.0056 213.787 30.1439C271.425 27.2531 326.627 15.2565 384.605 14.0223C441.075 12.8155 498.443 23.0129 554.075 27.3079C607.379 31.4165 659.725 32.1241 711.851 23.9783C767.702 15.251 822.993 19.2005 877.306 29.4637C906.605 35.0094 934.136 43.8848 963.714 48.701C990.256 53.018 1018.45 52.4694 1045.44 49.8913C1075.52 47.0169 1104.52 41.5316 1133.11 35.7774C1163.84 29.5844 1196.19 20.4512 1228.87 18.2241C1298.63 13.4628 1370.78 33.0895 1438.95 20.4183" stroke="url(#paint61_linear)" stroke-miterlimit="10"/>
<path d="M0.998657 3.2161C76.0523 5.95879 137.066 33.2431 214.436 29.4417C272.084 26.6113 327.536 14.9329 385.563 13.8907C441.974 12.8978 498.963 23.2762 554.594 27.5109C607.928 31.5701 660.174 31.8992 712.001 23.1226C768.431 13.5615 823.752 18.257 878.465 29.1565C907.633 34.971 935.324 44.0493 965.012 48.8326C991.475 53.1002 1019.52 52.3433 1046.33 49.5457C1076.36 46.4026 1105.24 40.621 1133.71 34.6254C1164.3 28.1801 1196.62 18.8111 1229.39 16.5237C1299 11.6142 1371.06 33.0895 1438.96 19.8588" stroke="url(#paint62_linear)" stroke-miterlimit="10"/>
<path d="M0.998657 2.43717C75.6828 5.17987 136.497 32.4642 213.418 28.9261C274.201 26.1341 332.958 13.5232 394.291 13.781C446.727 14.0004 499.342 23.4627 551.139 27.5328C606.171 31.8553 658.846 31.7347 712.141 22.4808C771.237 12.2451 826.608 17.6262 883.567 29.7983C909.101 35.2508 933.427 42.689 959.15 47.7959C986.372 53.199 1016.26 52.6724 1044.27 49.6719C1076.05 46.2709 1106.48 39.7982 1136.46 33.2157C1166.68 26.5564 1198.8 17.1819 1231.38 14.9878C1300.29 10.3745 1371.95 33.1499 1438.95 19.4145" stroke="url(#paint63_linear)" stroke-miterlimit="10"/>
<path d="M0.998657 1.82281C75.8925 4.5271 136.706 31.9925 213.837 28.4489C274.641 25.6513 333.667 13.3366 394.98 13.748C447.376 14.1046 499.722 23.8302 551.488 27.9058C606.56 32.2393 659.226 31.8114 712.26 21.9542C771.956 10.8518 827.038 16.8637 884.466 29.6337C909.88 35.2837 934.276 42.7877 960.069 47.9001C987.231 53.3087 1016.99 52.6724 1044.84 49.5018C1076.6 45.887 1106.91 39.1344 1136.8 32.3764C1166.98 25.5526 1199.09 16.0739 1231.75 13.77C1300.53 8.95382 1372.26 33.4351 1438.96 19.036" stroke="url(#paint64_linear)" stroke-miterlimit="10"/>
<path d="M0.998657 1.38398C76.0423 4.04439 136.806 31.6743 214.156 28.0759C274.97 25.2454 334.126 13.194 395.519 13.7371C447.895 14.1978 499.991 24.2361 551.738 28.3447C606.84 32.733 659.585 32.0363 712.28 21.5867C772.555 9.63949 827.197 16.1561 885.115 29.4637C910.469 35.2837 934.925 42.8645 960.738 48.0372C987.88 53.4733 1017.38 52.7876 1045.21 49.4689C1109.51 41.7894 1167.12 17.7469 1232.03 12.8978C1300.69 7.76897 1372.61 33.9014 1438.96 18.7782" stroke="url(#paint65_linear)" stroke-miterlimit="10"/>
<path d="M0.998657 1.10494C76.1621 3.7105 136.906 31.505 214.346 27.8188C275.17 24.917 334.526 13.1015 395.889 13.7323C448.275 14.2809 500.141 24.6702 551.868 28.8501C606.99 33.3042 659.915 32.4046 712.31 21.3899C773.114 8.60347 827.147 15.4986 885.615 29.3437C910.759 35.2844 935.274 43.156 961.148 48.1257C988.629 53.3972 1017.24 52.9693 1045.37 49.5025C1109.78 41.5597 1167.07 17.4953 1232.21 12.2951C1300.78 6.80975 1373.01 34.5384 1438.92 18.6143" stroke="url(#paint66_linear)" stroke-miterlimit="10"/>
<path d="M0.998657 1C76.242 3.52877 136.876 31.4878 214.396 27.6645C275.22 24.664 334.656 13.0459 396.138 13.7261C448.534 14.3076 500.201 25.1357 551.918 29.4143C607.039 33.9727 660.244 32.925 712.33 21.3563C773.603 7.73606 826.878 14.878 885.904 29.2498C939.828 42.3708 984.255 57.3075 1045.32 49.617C1109.9 41.4822 1166.92 17.6207 1232.29 12.0037C1300.78 6.11787 1373.39 35.344 1439 18.5862" stroke="url(#paint67_linear)" stroke-miterlimit="10"/>
<defs>
<linearGradient id="paint0_linear" x1="1.03666e+06" y1="630.31" x2="1.03666e+06" y2="374.871" gradientUnits="userSpaceOnUse">
<stop stop-color="#592CB8"/>
<stop offset="1" stop-color="#2C66B8"/>
</linearGradient>
<linearGradient id="paint1_linear" x1="1.03668e+06" y1="916.275" x2="1.03668e+06" y2="444.543" gradientUnits="userSpaceOnUse">
<stop stop-color="#592CB8"/>
<stop offset="1" stop-color="#2C66B8"/>
</linearGradient>
<linearGradient id="paint2_linear" x1="1.03668e+06" y1="1343.04" x2="1.03668e+06" y2="552.372" gradientUnits="userSpaceOnUse">
<stop stop-color="#592CB8"/>
<stop offset="1" stop-color="#2C66B8"/>
</linearGradient>
<linearGradient id="paint3_linear" x1="1.03668e+06" y1="2051.75" x2="1.03668e+06" y2="735.146" gradientUnits="userSpaceOnUse">
<stop stop-color="#592CB8"/>
<stop offset="1" stop-color="#2C66B8"/>
</linearGradient>
<linearGradient id="paint4_linear" x1="1.03668e+06" y1="2831.21" x2="1.03668e+06" y2="937.189" gradientUnits="userSpaceOnUse">
<stop stop-color="#592CB8"/>
<stop offset="1" stop-color="#2C66B8"/>
</linearGradient>
<linearGradient id="paint5_linear" x1="1.03668e+06" y1="3779.89" x2="1.03668e+06" y2="1184.2" gradientUnits="userSpaceOnUse">
<stop stop-color="#592CB8"/>
<stop offset="1" stop-color="#2C66B8"/>
</linearGradient>
<linearGradient id="paint6_linear" x1="1.03667e+06" y1="4777.37" x2="1.03667e+06" y2="1444.38" gradientUnits="userSpaceOnUse">
<stop stop-color="#592CB8"/>
<stop offset="1" stop-color="#2C66B8"/>
</linearGradient>
<linearGradient id="paint7_linear" x1="1.03669e+06" y1="5777.85" x2="1.03669e+06" y2="1705.48" gradientUnits="userSpaceOnUse">
<stop stop-color="#592CB8"/>
<stop offset="1" stop-color="#2C66B8"/>
</linearGradient>
<linearGradient id="paint8_linear" x1="1.03666e+06" y1="6728.87" x2="1.03666e+06" y2="1953.53" gradientUnits="userSpaceOnUse">
<stop stop-color="#592CB8"/>
<stop offset="1" stop-color="#2C66B8"/>
</linearGradient>
<linearGradient id="paint9_linear" x1="1.03668e+06" y1="7672.27" x2="1.03668e+06" y2="2199.33" gradientUnits="userSpaceOnUse">
<stop stop-color="#592CB8"/>
<stop offset="1" stop-color="#2C66B8"/>
</linearGradient>
<linearGradient id="paint10_linear" x1="1.03668e+06" y1="8396.76" x2="1.03668e+06" y2="2387.24" gradientUnits="userSpaceOnUse">
<stop stop-color="#592CB8"/>
<stop offset="1" stop-color="#2C66B8"/>
</linearGradient>
<linearGradient id="paint11_linear" x1="1.03668e+06" y1="8933.38" x2="1.03668e+06" y2="2525.21" gradientUnits="userSpaceOnUse">
<stop stop-color="#592CB8"/>
<stop offset="1" stop-color="#2C66B8"/>
</linearGradient>
<linearGradient id="paint12_linear" x1="1.03671e+06" y1="9219.6" x2="1.03671e+06" y2="2596.56" gradientUnits="userSpaceOnUse">
<stop stop-color="#592CB8"/>
<stop offset="1" stop-color="#2C66B8"/>
</linearGradient>
<linearGradient id="paint13_linear" x1="1.03668e+06" y1="9346.35" x2="1.03668e+06" y2="2625.2" gradientUnits="userSpaceOnUse">
<stop stop-color="#592CB8"/>
<stop offset="1" stop-color="#2C66B8"/>
</linearGradient>
<linearGradient id="paint14_linear" x1="1.03666e+06" y1="9474.83" x2="1.03666e+06" y2="2654.3" gradientUnits="userSpaceOnUse">
<stop stop-color="#592CB8"/>
<stop offset="1" stop-color="#2C66B8"/>
</linearGradient>
<linearGradient id="paint15_linear" x1="1.03667e+06" y1="9547.3" x2="1.03667e+06" y2="2668.84" gradientUnits="userSpaceOnUse">
<stop stop-color="#592CB8"/>
<stop offset="1" stop-color="#2C66B8"/>
</linearGradient>
<linearGradient id="paint16_linear" x1="1.03671e+06" y1="9567.75" x2="1.03671e+06" y2="2669.84" gradientUnits="userSpaceOnUse">
<stop stop-color="#592CB8"/>
<stop offset="1" stop-color="#2C66B8"/>
</linearGradient>
<linearGradient id="paint17_linear" x1="1.03668e+06" y1="9542.65" x2="1.03668e+06" y2="2659.01" gradientUnits="userSpaceOnUse">
<stop stop-color="#592CB8"/>
<stop offset="1" stop-color="#2C66B8"/>
</linearGradient>
<linearGradient id="paint18_linear" x1="1.03668e+06" y1="9476.28" x2="1.03668e+06" y2="2637.47" gradientUnits="userSpaceOnUse">
<stop stop-color="#592CB8"/>
<stop offset="1" stop-color="#2C66B8"/>
</linearGradient>
<linearGradient id="paint19_linear" x1="1.03669e+06" y1="9324.65" x2="1.03669e+06" y2="2593.67" gradientUnits="userSpaceOnUse">
<stop stop-color="#592CB8"/>
<stop offset="1" stop-color="#2C66B8"/>
</linearGradient>
<linearGradient id="paint20_linear" x1="1.0367e+06" y1="9223.04" x2="1.0367e+06" y2="2563.12" gradientUnits="userSpaceOnUse">
<stop stop-color="#592CB8"/>
<stop offset="1" stop-color="#2C66B8"/>
</linearGradient>
<linearGradient id="paint21_linear" x1="1.03666e+06" y1="9100.37" x2="1.03666e+06" y2="2527.13" gradientUnits="userSpaceOnUse">
<stop stop-color="#592CB8"/>
<stop offset="1" stop-color="#2C66B8"/>
</linearGradient>
<linearGradient id="paint22_linear" x1="1.03668e+06" y1="8970.16" x2="1.03668e+06" y2="2489.28" gradientUnits="userSpaceOnUse">
<stop stop-color="#592CB8"/>
<stop offset="1" stop-color="#2C66B8"/>
</linearGradient>
<linearGradient id="paint23_linear" x1="1.03671e+06" y1="8832.49" x2="1.03671e+06" y2="2449.56" gradientUnits="userSpaceOnUse">
<stop stop-color="#592CB8"/>
<stop offset="1" stop-color="#2C66B8"/>
</linearGradient>
<linearGradient id="paint24_linear" x1="1.03667e+06" y1="8693.01" x2="1.03667e+06" y2="2409.42" gradientUnits="userSpaceOnUse">
<stop stop-color="#592CB8"/>
<stop offset="1" stop-color="#2C66B8"/>
</linearGradient>
<linearGradient id="paint25_linear" x1="1.03668e+06" y1="8511.4" x2="1.03668e+06" y2="2358.28" gradientUnits="userSpaceOnUse">
<stop stop-color="#592CB8"/>
<stop offset="1" stop-color="#2C66B8"/>
</linearGradient>
<linearGradient id="paint26_linear" x1="1.03666e+06" y1="8381.43" x2="1.03666e+06" y2="2320.78" gradientUnits="userSpaceOnUse">
<stop stop-color="#592CB8"/>
<stop offset="1" stop-color="#2C66B8"/>
</linearGradient>
<linearGradient id="paint27_linear" x1="1.03666e+06" y1="8265.59" x2="1.03666e+06" y2="2287.03" gradientUnits="userSpaceOnUse">
<stop stop-color="#592CB8"/>
<stop offset="1" stop-color="#2C66B8"/>
</linearGradient>
<linearGradient id="paint28_linear" x1="1.03666e+06" y1="8174.56" x2="1.03666e+06" y2="2259.88" gradientUnits="userSpaceOnUse">
<stop stop-color="#592CB8"/>
<stop offset="1" stop-color="#2C66B8"/>
</linearGradient>
<linearGradient id="paint29_linear" x1="1.03671e+06" y1="8096.02" x2="1.03671e+06" y2="2235.96" gradientUnits="userSpaceOnUse">
<stop stop-color="#592CB8"/>
<stop offset="1" stop-color="#2C66B8"/>
</linearGradient>
<linearGradient id="paint30_linear" x1="1.03668e+06" y1="8057.07" x2="1.03668e+06" y2="2222.5" gradientUnits="userSpaceOnUse">
<stop stop-color="#592CB8"/>
<stop offset="1" stop-color="#2C66B8"/>
</linearGradient>
<linearGradient id="paint31_linear" x1="1.03668e+06" y1="8038.38" x2="1.03668e+06" y2="2214.35" gradientUnits="userSpaceOnUse">
<stop stop-color="#592CB8"/>
<stop offset="1" stop-color="#2C66B8"/>
</linearGradient>
<linearGradient id="paint32_linear" x1="1.03671e+06" y1="7986.94" x2="1.03671e+06" y2="2197.54" gradientUnits="userSpaceOnUse">
<stop stop-color="#592CB8"/>
<stop offset="1" stop-color="#2C66B8"/>
</linearGradient>
<linearGradient id="paint33_linear" x1="1.03668e+06" y1="7909.64" x2="1.03668e+06" y2="2173.91" gradientUnits="userSpaceOnUse">
<stop stop-color="#592CB8"/>
<stop offset="1" stop-color="#2C66B8"/>
</linearGradient>
<linearGradient id="paint34_linear" x1="1.03671e+06" y1="7796.87" x2="1.03671e+06" y2="2140.88" gradientUnits="userSpaceOnUse">
<stop stop-color="#592CB8"/>
<stop offset="1" stop-color="#2C66B8"/>
</linearGradient>
<linearGradient id="paint35_linear" x1="1.03668e+06" y1="7661.81" x2="1.03668e+06" y2="2102.01" gradientUnits="userSpaceOnUse">
<stop stop-color="#592CB8"/>
<stop offset="1" stop-color="#2C66B8"/>
</linearGradient>
<linearGradient id="paint36_linear" x1="1.03671e+06" y1="7500.34" x2="1.03671e+06" y2="2056.14" gradientUnits="userSpaceOnUse">
<stop stop-color="#592CB8"/>
<stop offset="1" stop-color="#2C66B8"/>
</linearGradient>
<linearGradient id="paint37_linear" x1="1.03668e+06" y1="7320.32" x2="1.03668e+06" y2="2005.43" gradientUnits="userSpaceOnUse">
<stop stop-color="#592CB8"/>
<stop offset="1" stop-color="#2C66B8"/>
</linearGradient>
<linearGradient id="paint38_linear" x1="1.03668e+06" y1="7116.47" x2="1.03668e+06" y2="1948.44" gradientUnits="userSpaceOnUse">
<stop stop-color="#592CB8"/>
<stop offset="1" stop-color="#2C66B8"/>
</linearGradient>
<linearGradient id="paint39_linear" x1="1.03667e+06" y1="6890.23" x2="1.03667e+06" y2="1885.54" gradientUnits="userSpaceOnUse">
<stop stop-color="#592CB8"/>
<stop offset="1" stop-color="#2C66B8"/>
</linearGradient>
<linearGradient id="paint40_linear" x1="1.03668e+06" y1="6656.88" x2="1.03668e+06" y2="1820.86" gradientUnits="userSpaceOnUse">
<stop stop-color="#592CB8"/>
<stop offset="1" stop-color="#2C66B8"/>
</linearGradient>
<linearGradient id="paint41_linear" x1="1.03668e+06" y1="6404.69" x2="1.03668e+06" y2="1751.22" gradientUnits="userSpaceOnUse">
<stop stop-color="#592CB8"/>
<stop offset="1" stop-color="#2C66B8"/>
</linearGradient>
<linearGradient id="paint42_linear" x1="1.03668e+06" y1="6150.55" x2="1.03668e+06" y2="1681.18" gradientUnits="userSpaceOnUse">
<stop stop-color="#592CB8"/>
<stop offset="1" stop-color="#2C66B8"/>
</linearGradient>
<linearGradient id="paint43_linear" x1="1.03668e+06" y1="5883.13" x2="1.03668e+06" y2="1607.68" gradientUnits="userSpaceOnUse">
<stop stop-color="#592CB8"/>
<stop offset="1" stop-color="#2C66B8"/>
</linearGradient>
<linearGradient id="paint44_linear" x1="1.03668e+06" y1="5616.92" x2="1.03668e+06" y2="1534.62" gradientUnits="userSpaceOnUse">
<stop stop-color="#592CB8"/>
<stop offset="1" stop-color="#2C66B8"/>
</linearGradient>
<linearGradient id="paint45_linear" x1="1.03663e+06" y1="5356.31" x2="1.03663e+06" y2="1463.19" gradientUnits="userSpaceOnUse">
<stop stop-color="#592CB8"/>
<stop offset="1" stop-color="#2C66B8"/>
</linearGradient>
<linearGradient id="paint46_linear" x1="1.03672e+06" y1="5077.19" x2="1.03672e+06" y2="1386.88" gradientUnits="userSpaceOnUse">
<stop stop-color="#592CB8"/>
<stop offset="1" stop-color="#2C66B8"/>
</linearGradient>
<linearGradient id="paint47_linear" x1="1.03668e+06" y1="4905.1" x2="1.03668e+06" y2="1339.52" gradientUnits="userSpaceOnUse">
<stop stop-color="#592CB8"/>
<stop offset="1" stop-color="#2C66B8"/>
</linearGradient>
<linearGradient id="paint48_linear" x1="1.03668e+06" y1="4693.04" x2="1.03668e+06" y2="1281.49" gradientUnits="userSpaceOnUse">
<stop stop-color="#592CB8"/>
<stop offset="1" stop-color="#2C66B8"/>
</linearGradient>
<linearGradient id="paint49_linear" x1="1.03671e+06" y1="4524.48" x2="1.03671e+06" y2="1235.31" gradientUnits="userSpaceOnUse">
<stop stop-color="#592CB8"/>
<stop offset="1" stop-color="#2C66B8"/>
</linearGradient>
<linearGradient id="paint50_linear" x1="1.03668e+06" y1="4388.12" x2="1.03668e+06" y2="1197.89" gradientUnits="userSpaceOnUse">
<stop stop-color="#592CB8"/>
<stop offset="1" stop-color="#2C66B8"/>
</linearGradient>
<linearGradient id="paint51_linear" x1="1.03665e+06" y1="4274.75" x2="1.03665e+06" y2="1166.73" gradientUnits="userSpaceOnUse">
<stop stop-color="#592CB8"/>
<stop offset="1" stop-color="#2C66B8"/>
</linearGradient>
<linearGradient id="paint52_linear" x1="1.03666e+06" y1="4178.32" x2="1.03666e+06" y2="1140.24" gradientUnits="userSpaceOnUse">
<stop stop-color="#592CB8"/>
<stop offset="1" stop-color="#2C66B8"/>
</linearGradient>
<linearGradient id="paint53_linear" x1="1.03666e+06" y1="4099.87" x2="1.03666e+06" y2="1118.65" gradientUnits="userSpaceOnUse">
<stop stop-color="#592CB8"/>
<stop offset="1" stop-color="#2C66B8"/>
</linearGradient>
<linearGradient id="paint54_linear" x1="1.03667e+06" y1="4102.33" x2="1.03667e+06" y2="1118.48" gradientUnits="userSpaceOnUse">
<stop stop-color="#592CB8"/>
<stop offset="1" stop-color="#2C66B8"/>
</linearGradient>
<linearGradient id="paint55_linear" x1="1.03671e+06" y1="4209.18" x2="1.03671e+06" y2="1145.89" gradientUnits="userSpaceOnUse">
<stop stop-color="#592CB8"/>
<stop offset="1" stop-color="#2C66B8"/>
</linearGradient>
<linearGradient id="paint56_linear" x1="1.03669e+06" y1="4319.88" x2="1.03669e+06" y2="1174.44" gradientUnits="userSpaceOnUse">
<stop stop-color="#592CB8"/>
<stop offset="1" stop-color="#2C66B8"/>
</linearGradient>
<linearGradient id="paint57_linear" x1="1.03668e+06" y1="4432.54" x2="1.03668e+06" y2="1203.63" gradientUnits="userSpaceOnUse">
<stop stop-color="#592CB8"/>
<stop offset="1" stop-color="#2C66B8"/>
</linearGradient>
<linearGradient id="paint58_linear" x1="1.03665e+06" y1="4548.43" x2="1.03665e+06" y2="1233.77" gradientUnits="userSpaceOnUse">
<stop stop-color="#592CB8"/>
<stop offset="1" stop-color="#2C66B8"/>
</linearGradient>
<linearGradient id="paint59_linear" x1="1.03666e+06" y1="4655.85" x2="1.03666e+06" y2="1261.77" gradientUnits="userSpaceOnUse">
<stop stop-color="#592CB8"/>
<stop offset="1" stop-color="#2C66B8"/>
</linearGradient>
<linearGradient id="paint60_linear" x1="1.03668e+06" y1="4760.88" x2="1.03668e+06" y2="1289.22" gradientUnits="userSpaceOnUse">
<stop stop-color="#592CB8"/>
<stop offset="1" stop-color="#2C66B8"/>
</linearGradient>
<linearGradient id="paint61_linear" x1="1.03668e+06" y1="4857.75" x2="1.03668e+06" y2="1314.58" gradientUnits="userSpaceOnUse">
<stop stop-color="#592CB8"/>
<stop offset="1" stop-color="#2C66B8"/>
</linearGradient>
<linearGradient id="paint62_linear" x1="1.03668e+06" y1="4946.67" x2="1.03668e+06" y2="1337.9" gradientUnits="userSpaceOnUse">
<stop stop-color="#592CB8"/>
<stop offset="1" stop-color="#2C66B8"/>
</linearGradient>
<linearGradient id="paint63_linear" x1="1.03668e+06" y1="5031.91" x2="1.03668e+06" y2="1360.35" gradientUnits="userSpaceOnUse">
<stop stop-color="#592CB8"/>
<stop offset="1" stop-color="#2C66B8"/>
</linearGradient>
<linearGradient id="paint64_linear" x1="1.03668e+06" y1="5096.06" x2="1.03668e+06" y2="1377.22" gradientUnits="userSpaceOnUse">
<stop stop-color="#592CB8"/>
<stop offset="1" stop-color="#2C66B8"/>
</linearGradient>
<linearGradient id="paint65_linear" x1="1.03668e+06" y1="5151.79" x2="1.03668e+06" y2="1391.95" gradientUnits="userSpaceOnUse">
<stop stop-color="#592CB8"/>
<stop offset="1" stop-color="#2C66B8"/>
</linearGradient>
<linearGradient id="paint66_linear" x1="1.03666e+06" y1="5185.84" x2="1.03666e+06" y2="1400.94" gradientUnits="userSpaceOnUse">
<stop stop-color="#592CB8"/>
<stop offset="1" stop-color="#2C66B8"/>
</linearGradient>
<linearGradient id="paint67_linear" x1="1.03671e+06" y1="5157.47" x2="1.03671e+06" y2="1393.2" gradientUnits="userSpaceOnUse">
<stop stop-color="#592CB8"/>
<stop offset="1" stop-color="#2C66B8"/>
</linearGradient>
</defs>
</svg>
