<svg width="118" height="26" viewBox="0 0 118 26" fill="none" xmlns="http://www.w3.org/2000/svg">
<path fill-rule="evenodd" clip-rule="evenodd" d="M20.7676 0C21.0549 0 21.5336 24.3173 21.5336 24.3173C21.5336 24.3173 21.8509 0.796015 21.8509 1.08333V24.9167C21.8509 25.204 41.7368 25.4795 41.5336 25.6827C41.3304 25.8859 21.0549 26 20.7676 26C20.4803 26 20.2047 25.8859 20.0015 25.6827C19.7984 25.4795 19.6842 25.204 19.6842 24.9167V1.08333C19.6842 0.796015 -0.201618 0.520465 0.00154619 0.317301C0.204711 0.114136 20.4803 0 20.7676 0ZM16.4342 4.33333C16.7216 4.33333 16.9971 19.4475 17.2003 19.6506C17.4034 19.8538 17.5176 5.12935 17.5176 5.41667V20.5833C17.5176 20.8707 17.4034 21.1462 17.2003 21.3494C16.9971 21.5525 16.7216 21.6667 16.4342 21.6667C16.1469 21.6667 15.8714 21.5525 15.6682 21.3494C15.4651 21.1462 15.3509 20.8707 15.3509 20.5833V5.41667C15.3509 5.12935 15.4651 4.8538 15.6682 4.65063C15.8714 4.44747 16.1469 4.33333 16.4342 4.33333ZM25.1009 4.33333C25.3882 4.33333 25.6638 19.4475 25.8669 19.6506C26.0701 19.8538 26.1842 5.12935 26.1842 5.41667V20.5833C26.1842 20.8707 26.0701 21.1462 25.8669 21.3494C25.6638 21.5525 25.3882 21.6667 25.1009 21.6667C24.8136 21.6667 24.538 21.5525 24.3349 21.3494C24.1317 21.1462 24.0176 20.8707 24.0176 20.5833V5.41667C24.0176 5.12935 24.1317 4.8538 24.3349 4.65063C24.538 4.44747 24.8136 4.33333 25.1009 4.33333ZM12.1009 7.58333C12.3882 7.58333 12.6638 16.6975 12.8669 16.9006C13.0701 17.1038 13.1842 8.37935 13.1842 8.66667V17.3333C13.1842 17.6207 13.0701 17.8962 12.8669 18.0994C12.6638 18.3025 12.3882 18.4167 12.1009 18.4167C11.8136 18.4167 11.538 18.3025 11.3349 18.0994C11.1317 17.8962 11.0176 17.6207 11.0176 17.3333V8.66667C11.0176 8.37935 11.1317 8.1038 11.3349 7.90064C11.538 7.69747 11.8136 7.58333 12.1009 7.58333ZM29.4342 7.58333C29.7216 7.58333 29.9971 16.6975 30.2003 16.9006C30.4034 17.1038 30.5176 8.37935 30.5176 8.66667V17.3333C30.5176 17.6207 30.4034 17.8962 30.2003 18.0994C29.9971 18.3025 29.7216 18.4167 29.4342 18.4167C29.1469 18.4167 28.8714 18.3025 28.6682 18.0994C28.465 17.8962 28.3509 17.6207 28.3509 17.3333V8.66667C28.3509 8.37935 28.465 8.1038 28.6682 7.90064C28.8714 7.69747 29.1469 7.58333 29.4342 7.58333ZM7.76758 9.75C8.0549 9.75 8.33045 14.8641 8.53361 15.0673C8.73678 15.2705 8.85091 10.546 8.85091 10.8333V15.1667C8.85091 15.454 8.73678 15.7295 8.53361 15.9327C8.33045 16.1359 8.0549 16.25 7.76758 16.25C7.48026 16.25 7.20471 16.1359 7.00155 15.9327C6.79838 15.7295 6.68425 15.454 6.68425 15.1667V10.8333C6.68425 10.546 6.79838 10.2705 7.00155 10.0673C7.20471 9.86414 7.48026 9.75 7.76758 9.75ZM33.7676 9.75C34.0549 9.75 34.3304 14.8641 34.5336 15.0673C34.7368 15.2705 34.8509 10.546 34.8509 10.8333V15.1667C34.8509 15.454 34.7368 15.7295 34.5336 15.9327C34.3304 16.1359 34.0549 16.25 33.7676 16.25C33.4803 16.25 33.2047 16.1359 33.0015 15.9327C32.7984 15.7295 32.6842 15.454 32.6842 15.1667V10.8333C32.6842 10.546 32.7984 10.2705 33.0015 10.0673C33.2047 9.86414 33.4803 9.75 33.7676 9.75Z" fill="white"/>
<path d="M65.305 8.3H68.89L65.08 17H61.705L59.155 12.29L56.59 17H53.215L49.405 8.3H53.065L55.09 13.4L57.805 8.3H60.445L63.13 13.28L65.305 8.3ZM81.057 17.015H77.607C77.607 16.765 77.602 16.5 77.592 16.22C76.532 16.85 75.307 17.165 73.917 17.165C73.507 17.165 73.157 17.16 72.867 17.15C72.587 17.14 72.237 17.115 71.817 17.075C71.397 17.035 71.042 16.98 70.752 16.91C70.462 16.84 70.157 16.735 69.837 16.595C69.517 16.455 69.257 16.29 69.057 16.1C68.857 15.9 68.692 15.65 68.562 15.35C68.432 15.04 68.367 14.7 68.367 14.33C68.367 13.86 68.517 13.455 68.817 13.115C69.127 12.765 69.547 12.49 70.077 12.29C70.607 12.09 71.187 11.945 71.817 11.855C72.447 11.755 73.127 11.705 73.857 11.705C75.097 11.705 76.217 11.89 77.217 12.26C77.017 11.66 76.677 11.27 76.197 11.09C75.727 10.9 74.977 10.805 73.947 10.805C73.107 10.805 72.297 10.865 71.517 10.985C70.747 11.095 70.252 11.185 70.032 11.255C69.822 11.315 69.642 11.37 69.492 11.42L68.712 9.05C70.412 8.42 72.227 8.105 74.157 8.105C74.577 8.105 74.987 8.12 75.387 8.15C75.787 8.17 76.262 8.23 76.812 8.33C77.362 8.42 77.852 8.545 78.282 8.705C78.722 8.865 79.137 9.1 79.527 9.41C79.917 9.71 80.202 10.06 80.382 10.46C80.672 11.12 80.857 11.955 80.937 12.965C81.017 13.965 81.057 15.315 81.057 17.015ZM74.307 14.96C75.037 14.96 75.707 14.885 76.317 14.735C76.927 14.575 77.277 14.43 77.367 14.3C77.367 14.21 77.367 14.155 77.367 14.135C77.087 13.875 76.127 13.745 74.487 13.745C73.657 13.745 73.062 13.795 72.702 13.895C72.342 13.985 72.162 14.13 72.162 14.33C72.162 14.75 72.877 14.96 74.307 14.96ZM89.758 8.3H93.628L89.143 17H84.568L80.083 8.3H83.983L86.848 13.925L89.758 8.3ZM99.0358 8.105C100.066 8.105 100.961 8.195 101.721 8.375C102.481 8.555 103.141 8.85 103.701 9.26C104.261 9.67 104.671 10.23 104.931 10.94C105.191 11.64 105.281 12.485 105.201 13.475H96.2908C96.3408 13.745 96.5858 13.965 97.0258 14.135C97.4658 14.305 98.1258 14.39 99.0058 14.39C99.7758 14.39 100.541 14.34 101.301 14.24C102.071 14.14 102.651 14.04 103.041 13.94L103.611 13.79L105.111 16.22C105.081 16.24 105.026 16.27 104.946 16.31C104.866 16.34 104.661 16.4 104.331 16.49C104.011 16.58 103.646 16.66 103.236 16.73C102.826 16.8 102.256 16.865 101.526 16.925C100.796 16.975 99.9958 17 99.1258 17C98.1058 17 97.2158 16.93 96.4558 16.79C95.7058 16.65 95.0908 16.455 94.6108 16.205C94.1408 15.955 93.7608 15.64 93.4708 15.26C93.1808 14.88 92.9808 14.475 92.8708 14.045C92.7608 13.615 92.7058 13.115 92.7058 12.545C92.7058 11.145 93.2358 10.055 94.2958 9.275C95.3658 8.495 96.9458 8.105 99.0358 8.105ZM99.0658 10.79C98.5158 10.79 98.0458 10.83 97.6558 10.91C97.2658 10.99 96.9808 11.095 96.8008 11.225C96.6208 11.345 96.4908 11.465 96.4108 11.585C96.3308 11.705 96.2908 11.825 96.2908 11.945H101.661C101.661 11.615 101.461 11.34 101.061 11.12C100.671 10.9 100.006 10.79 99.0658 10.79ZM111.343 11.585C112.373 11.585 113.218 11.61 113.878 11.66C114.548 11.71 115.128 11.79 115.618 11.9C116.118 12.01 116.493 12.175 116.743 12.395C117.003 12.615 117.188 12.88 117.298 13.19C117.418 13.49 117.478 13.875 117.478 14.345C117.478 14.755 117.448 15.1 117.388 15.38C117.338 15.65 117.228 15.905 117.058 16.145C116.888 16.375 116.663 16.56 116.383 16.7C116.113 16.84 115.743 16.96 115.273 17.06C114.813 17.16 114.268 17.23 113.638 17.27C113.018 17.31 112.268 17.33 111.388 17.33C108.338 17.33 106.543 17.08 106.003 16.58L106.978 14.09C107.218 14.25 107.808 14.385 108.748 14.495C109.688 14.595 110.613 14.645 111.523 14.645C111.683 14.645 111.903 14.645 112.183 14.645C113.013 14.645 113.558 14.635 113.818 14.615C114.078 14.585 114.208 14.51 114.208 14.39C114.208 14.06 113.238 13.895 111.298 13.895C110.508 13.895 109.833 13.875 109.273 13.835C108.723 13.785 108.208 13.7 107.728 13.58C107.258 13.46 106.883 13.3 106.603 13.1C106.323 12.89 106.103 12.625 105.943 12.305C105.793 11.975 105.718 11.585 105.718 11.135C105.718 10.805 105.743 10.51 105.793 10.25C105.853 9.99 105.948 9.765 106.078 9.575C106.208 9.375 106.353 9.205 106.513 9.065C106.673 8.915 106.883 8.79 107.143 8.69C107.413 8.59 107.683 8.51 107.953 8.45C108.233 8.39 108.578 8.345 108.988 8.315C109.398 8.285 109.798 8.265 110.188 8.255C110.578 8.235 111.048 8.225 111.598 8.225C112.818 8.225 113.808 8.265 114.568 8.345C115.338 8.425 115.888 8.52 116.218 8.63C116.558 8.74 116.918 8.895 117.298 9.095L116.218 11.48C115.748 11.31 115.043 11.165 114.103 11.045C113.173 10.915 112.263 10.85 111.373 10.85C111.293 10.85 111.178 10.85 111.028 10.85C110.198 10.85 109.663 10.865 109.423 10.895C109.183 10.925 109.063 11.015 109.063 11.165C109.073 11.445 109.833 11.585 111.343 11.585Z" fill="white"/>
</svg>
